<svg width="213" height="213" viewBox="0 0 213 213" fill="none" xmlns="http://www.w3.org/2000/svg">
<g clip-path="url(#clip0_27_630)">
<path d="M210.012 130.993C223.521 73.7848 188.095 16.4574 130.887 2.94894C73.6786 -10.5596 16.3513 24.8662 2.84276 82.0745C-10.6657 139.283 24.76 196.61 81.9683 210.119C139.177 223.627 196.504 188.201 210.012 130.993Z" fill="black"/>
<path fill-rule="evenodd" clip-rule="evenodd" d="M190.711 88.2804C190.711 89.2822 191.086 90.2839 191.086 91.2857C189.959 95.0423 180.317 102.556 178.564 102.806C176.436 102.931 175.559 101.053 175.559 96.0441C174.182 99.1746 172.929 101.429 171.802 103.056C170.675 104.559 169.548 105.561 168.296 105.811C167.545 106.062 166.794 105.936 166.168 105.436C165.541 104.935 165.041 104.183 164.665 103.056C164.414 102.305 164.289 101.554 164.164 100.677C163.914 101.178 163.413 102.055 162.16 104.058C161.534 104.935 160.908 105.811 160.282 106.563C159.907 106.938 159.656 107.314 159.28 107.564C158.905 107.94 158.654 108.19 158.404 108.316C157.903 108.691 157.277 109.067 156.776 109.192C155.774 109.443 155.023 109.192 154.397 108.441C153.771 107.69 153.395 106.688 153.395 105.31C153.395 104.684 153.52 103.683 153.645 102.305C153.771 101.554 153.771 100.802 153.896 100.051C153.896 99.6755 153.771 99.425 153.52 99.1746C153.27 98.9241 153.019 98.9241 152.644 99.0494C152.393 99.1746 152.143 99.0494 152.018 99.0494C151.767 98.9241 151.767 98.6737 151.767 98.298C151.767 97.672 151.892 97.1711 152.143 96.9206C152.393 96.6702 152.769 96.4197 153.27 96.2945C154.898 95.7936 156.025 95.0423 156.651 93.9153C157.277 92.7884 157.653 91.7866 157.653 91.0353C157.653 90.5344 157.527 90.1587 157.402 89.7831C157.277 89.4074 157.026 89.157 156.651 89.0317C156.275 88.9065 155.899 88.9065 155.524 89.0317C154.647 89.2822 153.896 89.9083 153.145 90.7848C152.393 91.7866 151.517 93.4145 150.39 95.7936C150.139 97.672 149.889 99.5503 149.764 101.554C149.638 102.43 149.638 103.307 149.513 103.933C149.513 104.684 149.513 105.31 149.513 105.811C149.513 107.314 149.513 108.817 149.388 110.194C147.885 110.945 146.383 111.822 144.88 112.573C144.755 111.822 144.755 111.071 144.63 110.194C144.63 109.443 144.504 108.566 144.504 107.439C144.504 107.063 144.504 106.563 144.504 106.187C144.379 106.563 144.004 107.063 142.877 108.691C142.376 109.443 141.75 110.194 141.249 110.945C140.372 112.072 139.37 113.074 138.494 113.7C137.617 114.451 136.616 114.827 135.614 115.203C133.735 115.704 132.358 115.328 131.231 114.076C130.48 113.074 129.854 111.822 129.728 110.194C129.603 110.57 128.977 112.323 125.22 116.58C123.968 117.958 122.841 118.834 121.714 119.085C120.587 119.46 119.46 119.085 118.959 117.832C118.083 116.205 118.083 115.203 117.958 113.7C117.332 114.702 116.831 115.578 116.33 116.33C115.829 117.081 115.203 117.832 114.702 118.584C113.825 119.711 112.824 120.713 111.947 121.339C111.071 122.09 110.069 122.466 109.067 122.841C107.189 123.342 105.811 122.966 104.684 121.714C103.557 120.462 103.056 118.459 103.056 115.954C103.056 114.076 103.307 112.072 103.808 110.069C104.309 108.065 105.06 106.187 105.937 104.559C106.813 102.931 107.815 101.429 109.067 100.302C110.194 99.0494 111.446 98.2981 112.573 98.0476C113.825 97.672 114.827 97.7972 115.578 98.5485C116.33 99.1746 116.705 100.302 116.705 101.679C116.705 103.307 116.205 104.81 115.328 106.312C114.451 107.815 113.325 109.067 112.072 110.194C110.945 111.196 109.443 112.323 107.815 113.45C108.065 115.078 108.566 116.33 109.317 117.081C110.069 117.832 110.945 117.958 112.072 117.707C112.824 117.457 113.45 117.081 114.076 116.58C114.702 115.954 115.203 115.328 115.829 114.577C116.079 114.201 116.33 113.7 116.831 113.074C117.707 111.697 117.958 111.321 118.208 110.82C118.208 110.444 118.333 109.944 118.333 109.568C118.459 108.316 118.834 106.813 119.085 105.06C119.335 103.683 119.586 102.43 119.836 101.053C119.335 101.178 118.834 101.429 118.333 101.554C118.584 100.051 118.709 98.5485 118.959 97.0458C119.586 96.7954 120.212 96.6702 120.838 96.4197C121.464 93.4145 122.09 90.2839 122.716 87.2786C124.469 86.2769 126.347 85.2751 128.101 84.1481C127.349 87.5291 126.723 90.91 126.097 94.4162C126.974 94.0406 127.975 93.7901 128.852 93.4145C128.601 94.9171 128.351 96.4197 128.226 97.7972C127.224 98.1728 126.097 98.6737 125.095 99.0494C124.845 100.176 124.594 101.303 124.344 102.305C123.968 104.183 123.593 105.936 123.342 107.314C123.092 108.691 122.966 109.944 122.966 110.82C122.966 111.697 123.092 112.323 123.467 112.824C123.843 113.325 124.219 113.45 124.72 113.325C125.471 113.074 126.222 112.573 126.848 111.697C127.975 110.319 128.977 108.817 129.603 107.439C129.728 105.811 129.979 104.309 130.354 102.556C130.855 100.552 131.607 98.6737 132.483 97.0458C133.36 95.418 134.362 93.9153 135.614 92.7884C136.741 91.5361 137.993 90.7848 139.12 90.5344C140.372 90.1587 141.374 90.2839 142.125 91.0353C142.877 91.6614 143.252 92.7883 143.252 94.1658C143.252 95.7936 142.751 97.2963 141.875 98.7989C140.998 100.302 139.871 101.554 138.619 102.681C137.492 103.683 135.989 104.81 134.362 105.937C134.612 107.564 135.113 108.817 135.864 109.443C136.616 110.194 137.492 110.319 138.619 110.069C139.37 109.818 139.996 109.443 140.623 108.942C141.249 108.316 141.75 107.69 142.376 106.938C142.626 106.563 142.877 106.062 143.377 105.436C144.004 104.434 144.254 104.183 144.755 103.182C144.88 101.929 144.88 100.677 145.005 99.425C145.256 96.6702 145.757 93.9153 146.257 91.2857C146.758 88.6561 147.51 86.0264 148.386 83.2716C149.263 80.5167 150.265 77.6367 151.517 74.5062C153.52 72.8783 155.148 71.5009 156.526 70.4991C157.903 69.4973 158.654 68.9965 158.78 68.9965C159.155 68.8712 159.406 69.2469 159.656 69.9982C160.032 70.7496 160.157 71.6261 160.157 72.6279C160.157 74.2557 159.781 76.134 159.03 78.1376C158.279 80.2663 157.026 83.0212 155.273 86.4021C156.526 85.6508 157.402 85.1499 158.153 84.8995C159.406 84.5238 160.407 84.649 161.159 85.2751C161.91 85.9012 162.286 86.903 162.286 88.2804C162.286 89.157 162.16 90.1587 161.785 91.0353C161.409 91.9118 160.783 92.9136 159.907 93.9153C159.03 94.7919 157.903 95.7936 156.4 96.7954C158.028 96.7954 158.78 97.9224 158.78 99.9259C158.78 100.051 158.78 100.176 158.78 100.302C158.78 100.552 158.78 100.677 158.78 100.928C158.78 101.178 158.78 101.554 158.78 101.804C158.78 102.055 158.78 102.18 158.78 102.43C158.78 103.557 159.155 104.058 159.907 103.808C160.407 103.683 160.908 103.182 161.534 102.43C162.16 101.679 162.912 100.427 163.914 98.5485C164.039 98.298 164.289 97.9224 164.414 97.672C164.414 97.5467 164.54 95.2928 165.416 92.7884C166.168 90.6596 167.044 88.6561 168.171 86.903C169.298 85.1499 170.425 83.6473 171.677 82.5203C172.929 81.2681 174.056 80.642 174.933 80.2663C176.561 79.7654 177.813 80.5168 178.439 82.3951C179.817 81.0176 181.194 79.515 182.571 78.1376C182.947 78.0123 183.323 77.8871 183.698 77.7619C183.072 80.642 182.571 83.522 181.945 86.4021C181.57 88.03 181.319 89.6578 181.069 91.4109C180.944 92.2875 180.818 93.0388 180.693 93.6649C180.568 94.291 180.568 94.9171 180.568 95.2928C180.568 96.0441 180.693 96.6702 180.944 96.9206C181.945 98.4233 190.711 89.157 190.711 88.2804ZM76.134 158.028L73.1287 165.667H71.8765L68.9965 158.028H70.3739L72.3774 163.538C72.5026 163.914 72.6279 164.289 72.6279 164.665C72.6279 164.289 72.7531 163.914 72.8783 163.663L74.8818 158.028H76.134ZM82.8959 165.667H81.6437V164.414C81.1428 165.291 80.2663 165.792 79.2645 165.792C78.5132 165.792 77.8871 165.541 77.5115 165.166C77.1358 164.79 76.8854 164.289 76.8854 163.538C76.8854 162.16 77.7619 161.284 79.3898 161.034L81.6437 160.658C81.6437 159.406 81.1429 158.654 80.0159 158.654C79.1393 158.654 78.2628 158.905 77.5115 159.656V158.404C78.2628 157.903 79.1393 157.653 80.1411 157.653C81.8942 157.653 82.8959 158.654 82.8959 160.533V165.667ZM81.6437 161.785L79.7654 162.035C79.1393 162.16 78.7637 162.286 78.5132 162.411C78.2628 162.661 78.1376 162.912 78.1376 163.538C78.1376 163.914 78.2628 164.164 78.5132 164.414C78.7637 164.665 79.1393 164.79 79.515 164.79C80.1411 164.79 80.642 164.54 81.0176 164.164C81.3933 163.788 81.6437 163.162 81.6437 162.536V161.785ZM86.6525 164.54V169.173H85.4003V158.028H86.6525V159.406C87.2786 158.404 88.1552 157.903 89.2822 157.903C90.2839 157.903 91.0353 158.279 91.5361 158.905C92.037 159.531 92.4127 160.533 92.4127 161.66C92.4127 162.912 92.1622 163.914 91.5361 164.79C90.91 165.541 90.0335 165.917 89.0317 165.917C87.9048 165.792 87.1534 165.416 86.6525 164.54ZM86.6525 161.534V162.661C86.6525 163.287 86.903 163.788 87.2786 164.289C87.6543 164.79 88.1552 164.915 88.7813 164.915C89.5326 164.915 90.1587 164.665 90.5344 164.039C90.91 163.413 91.1605 162.661 91.1605 161.66C91.1605 160.783 90.91 160.157 90.5344 159.656C90.1587 159.155 89.6578 158.905 88.9065 158.905C88.1552 158.905 87.6543 159.155 87.1534 159.656C86.7778 160.157 86.6525 160.783 86.6525 161.534ZM100.802 162.16H95.418C95.418 163.037 95.6684 163.663 96.0441 164.164C96.545 164.665 97.0458 164.915 97.7972 164.915C98.6737 164.915 99.425 164.665 100.176 164.039V165.166C99.5503 165.667 98.6737 165.917 97.5467 165.917C96.4197 165.917 95.6684 165.541 95.0423 164.915C94.4162 164.164 94.1658 163.287 94.1658 162.035C94.1658 160.908 94.5414 159.907 95.1675 159.155C95.7936 158.404 96.6702 158.028 97.672 158.028C98.6737 158.028 99.425 158.404 100.051 159.03C100.552 159.656 100.928 160.533 100.928 161.66V162.16H100.802ZM99.5503 161.159C99.5503 160.407 99.425 159.907 99.0494 159.531C98.6737 159.155 98.298 158.905 97.672 158.905C97.0458 158.905 96.545 159.155 96.1693 159.531C95.7936 159.907 95.5432 160.533 95.418 161.159H99.5503ZM106.437 165.541C106.187 165.667 105.811 165.792 105.31 165.792C103.933 165.792 103.307 165.041 103.307 163.538V159.03H101.929V158.028H103.307V156.15L104.559 155.774V158.028H106.437V159.03H104.559V163.287C104.559 163.788 104.684 164.164 104.81 164.414C104.935 164.665 105.31 164.79 105.686 164.79C105.937 164.79 106.312 164.665 106.437 164.54V165.541ZM114.326 162.16H108.942C108.942 163.037 109.192 163.663 109.568 164.164C109.944 164.665 110.57 164.915 111.321 164.915C112.198 164.915 112.949 164.665 113.7 164.039V165.166C113.074 165.667 112.198 165.917 111.071 165.917C109.944 165.917 109.192 165.541 108.566 164.915C107.94 164.164 107.69 163.287 107.69 162.035C107.69 160.908 108.065 159.907 108.691 159.155C109.317 158.404 110.194 158.028 111.196 158.028C112.198 158.028 112.949 158.404 113.575 159.03C114.076 159.656 114.451 160.533 114.451 161.66V162.16H114.326ZM113.074 161.159C113.074 160.407 112.949 159.907 112.573 159.531C112.198 159.155 111.822 158.905 111.196 158.905C110.57 158.905 110.069 159.155 109.693 159.531C109.317 159.907 109.067 160.533 108.942 161.159H113.074ZM122.716 165.667H120.963L117.582 162.035V165.667H116.33V154.397H117.582V161.534L120.838 158.028H122.466L118.959 161.66L122.716 165.667ZM129.728 165.667H128.476V164.414C127.975 165.291 127.099 165.792 126.097 165.792C125.346 165.792 124.72 165.541 124.344 165.166C123.968 164.79 123.718 164.289 123.718 163.538C123.718 162.16 124.594 161.284 126.222 161.034L128.476 160.658C128.476 159.406 127.975 158.654 126.848 158.654C125.972 158.654 125.095 158.905 124.344 159.656V158.404C125.095 157.903 125.972 157.653 126.974 157.653C128.727 157.653 129.728 158.654 129.728 160.533V165.667ZM128.476 161.785L126.598 162.035C125.972 162.16 125.596 162.286 125.346 162.411C125.095 162.661 124.97 162.912 124.97 163.538C124.97 163.914 125.095 164.164 125.346 164.414C125.596 164.665 125.972 164.79 126.347 164.79C126.974 164.79 127.474 164.54 127.85 164.164C128.226 163.788 128.476 163.162 128.476 162.536V161.785ZM132.608 165.792C132.358 165.792 132.233 165.667 131.982 165.541C131.857 165.416 131.732 165.166 131.732 164.915C131.732 164.665 131.857 164.54 131.982 164.289C132.108 164.164 132.358 164.039 132.608 164.039C132.859 164.039 132.984 164.164 133.235 164.289C133.36 164.414 133.485 164.665 133.485 164.915C133.485 165.166 133.36 165.291 133.235 165.541C133.109 165.792 132.859 165.792 132.608 165.792ZM142.125 165.667H140.372L136.991 162.035V165.667H135.739V154.397H136.991V161.534L140.247 158.028H141.875L138.369 161.66L142.125 165.667ZM148.887 158.404L144.379 164.665H148.887V165.667H142.626V165.291L147.134 159.03H143.002V158.028H148.887V158.404ZM79.0141 125.22C78.388 125.972 78.0123 126.473 77.5115 126.598C77.1358 126.723 76.8854 126.598 76.6349 126.222C76.3845 125.847 76.2593 125.346 76.2593 124.594C76.2593 124.219 76.2593 123.718 76.3845 122.966C76.5097 122.34 76.5097 121.589 76.7601 120.713C77.0106 119.085 77.3862 117.457 77.6367 115.704C78.2628 112.824 78.7637 109.944 79.3898 107.063C79.0141 107.189 78.6384 107.314 78.2628 107.439C76.8854 108.817 75.5079 110.319 74.1305 111.697C73.3792 109.818 72.2522 109.067 70.6243 109.568C69.6226 109.818 68.4956 110.57 67.3686 111.822C66.1164 113.074 64.9894 114.451 63.8624 116.205C62.7354 117.958 61.8589 119.961 61.1076 122.09C60.3563 124.219 60.1058 126.473 60.1058 128.852C60.1058 130.229 60.231 131.481 60.6067 132.608C60.9824 133.735 61.4832 134.487 62.1093 134.988C62.7354 135.489 63.4868 135.614 64.2381 135.363C65.3651 134.988 66.4921 134.111 67.7443 132.608C68.8712 131.106 70.1234 128.727 71.5009 125.596C71.5009 130.73 72.5026 132.984 74.5062 132.358C75.3827 132.108 76.3845 131.356 77.261 130.104C78.6384 128.351 81.2681 124.344 81.769 123.467C82.1446 122.716 82.6455 122.09 83.0212 121.339C83.522 120.212 84.1481 119.085 84.649 118.083C84.8995 117.582 85.1499 117.081 85.4003 116.58C85.0247 118.709 84.7742 120.963 84.3986 123.092C84.0229 125.471 83.7725 127.85 83.3968 130.229C83.2716 130.981 83.1464 131.982 83.0212 133.36C82.8959 134.737 82.6455 135.989 82.5203 137.242C82.2698 139.37 82.0194 141.624 81.769 143.753C83.522 142.877 85.1499 142 86.903 140.998C87.1534 138.243 87.4039 135.864 87.6543 133.986C87.9048 132.108 88.1552 130.605 88.2804 129.603C88.4056 128.601 88.5309 127.6 88.7813 126.598C89.0317 126.848 89.2822 126.974 89.5326 127.224C89.7831 127.349 90.0335 127.474 90.1587 127.6C90.2839 127.6 90.5344 127.725 90.7848 127.6C91.0353 127.6 91.2857 127.6 91.4109 127.474C91.5361 127.474 91.6614 127.349 91.7866 127.349C92.9136 126.974 94.1658 126.222 95.2928 124.97C96.545 123.718 97.5467 122.215 98.4233 120.337C99.2998 118.584 100.051 116.58 100.677 114.451C101.178 112.323 101.554 110.194 101.554 108.316C101.554 106.813 101.429 105.436 100.928 104.434C100.552 103.307 99.9259 102.556 99.2998 102.18C98.5485 101.679 97.7972 101.679 96.9206 101.929C96.2945 102.18 95.6684 102.43 95.0423 102.931C94.4162 103.432 93.9153 104.058 93.2892 104.935C92.6631 105.811 92.037 106.938 91.4109 108.316C91.6614 106.688 91.9118 104.935 92.1622 103.307C90.6596 104.183 89.157 104.935 87.6543 105.811C87.0282 108.19 86.1517 110.82 85.0247 113.7C83.3968 117.832 81.5185 121.84 79.0141 125.22ZM26.672 152.268L77.5115 137.367L77.3862 138.619V138.744L27.4233 153.395C31.3051 160.032 36.0635 166.168 41.5732 171.552C58.2275 188.206 81.2681 198.474 106.688 198.474C132.108 198.474 155.148 188.206 171.802 171.552C188.457 154.898 198.725 131.857 198.725 106.437C198.725 105.436 198.725 104.309 198.725 103.307L92.2875 134.487C92.2875 133.986 92.4127 133.485 92.4127 133.109L198.474 102.055L198.6 102.305C197.598 80.3915 188.457 60.3563 174.307 44.9541C159.907 29.552 140.623 18.7831 119.335 15.2769C116.205 35.3122 112.573 59.8554 86.4021 61.4832C108.316 54.9718 110.57 34.4356 113.825 14.6508L114.827 7.01234C140.247 9.51675 163.162 21.6631 179.817 39.8201C196.22 57.6014 206.363 81.0176 206.363 106.563C206.363 134.111 195.219 159.03 177.187 177.062C159.03 195.093 133.986 206.238 106.437 206.238C78.8889 206.238 53.97 195.093 35.9383 177.062C17.9065 159.03 6.7619 133.986 6.7619 106.437C6.7619 78.8889 17.9065 53.97 35.9383 35.9383C53.97 17.9065 78.8889 6.7619 106.437 6.7619C106.813 6.7619 107.815 6.7619 108.691 6.88712L107.69 14.5256C107.189 14.5256 106.813 14.5256 106.437 14.5256C81.0176 14.5256 57.9771 24.7936 41.3227 41.448C24.7936 58.1023 14.4003 81.0176 14.4003 106.437C14.4003 123.092 18.9083 138.744 26.672 152.268ZM88.5309 99.6755L89.0317 95.2928C90.6596 82.3951 60.7319 87.9048 63.2363 68.4956C64.4885 58.3527 73.0035 56.5996 82.3951 53.4691C91.4109 50.4638 101.429 44.5785 107.189 23.291C103.307 38.5679 100.302 52.5926 83.2716 57.1005C77.3862 58.7284 68.746 61.1076 67.4938 69.2469C65.1146 83.6473 95.5432 79.3898 93.2892 94.9171C93.164 96.1693 92.6631 97.5467 90.7848 98.4233L88.5309 99.6755ZM40.9471 97.1711C44.328 97.1711 46.3316 99.9259 47.8342 101.804C48.4603 102.556 48.836 103.557 49.2116 104.559C49.2116 104.684 49.2116 104.684 49.3369 104.81C49.7125 105.686 49.8377 106.813 49.963 108.065C49.963 108.691 50.0882 109.317 50.0882 109.944C50.0882 111.822 49.963 113.951 49.4621 116.079C49.0864 118.208 48.4603 120.713 47.8342 123.467C46.7072 127.975 46.2063 131.106 46.2063 133.109C46.2063 134.362 46.4568 135.363 47.0829 136.115C47.709 136.866 48.3351 137.116 49.2116 136.866C50.2134 136.616 51.2152 135.739 52.2169 134.111C53.2187 132.608 54.2205 130.605 55.097 128.226C55.9735 125.847 56.7249 123.342 57.2257 120.713C57.7266 118.083 57.9771 115.578 57.9771 113.199C57.9771 110.194 57.351 107.189 55.9735 104.183C55.5979 103.307 55.3474 102.556 55.3474 102.18C55.3474 101.679 55.5979 101.053 56.224 100.302C56.7249 99.5503 57.351 98.7989 58.1023 98.1728C58.8536 97.5467 59.2293 97.1711 59.4797 97.0458C59.7302 96.9206 60.1058 97.2963 60.3563 98.1728C60.6067 98.9242 60.8571 99.9259 61.1076 101.178C61.358 102.43 61.4832 103.683 61.4832 104.935C61.4832 107.94 61.1076 111.446 60.3563 115.203C59.6049 119.085 58.6032 122.841 57.351 126.473C56.0988 130.104 54.4709 133.235 52.7178 135.864C50.9647 138.494 49.0864 139.996 47.2081 140.497C45.9559 140.873 44.8289 140.748 43.9524 140.247C42.9506 139.746 42.1993 138.744 41.6984 137.367C41.1975 135.989 40.8219 134.362 40.8219 132.358C40.8219 129.603 41.5732 125.346 43.0758 119.586C44.4533 114.076 45.0794 110.319 45.0794 108.19C45.0794 107.439 45.0794 106.938 44.9541 106.312C44.2028 103.056 40.8219 99.9259 37.4409 101.429C33.9347 103.307 30.8042 105.811 28.2998 108.942C24.9189 112.949 23.9171 116.956 24.5432 119.586C24.7936 120.587 25.2945 121.464 25.9206 121.965C26.672 122.466 27.5485 122.591 28.6755 122.591C31.9312 122.34 36.8148 119.085 40.0705 110.82L41.8236 111.822C38.6931 120.713 32.6825 125.847 28.5503 125.721C20.0353 125.596 20.4109 118.709 21.7884 114.076C23.5414 107.815 31.1799 102.305 36.3139 99.425L40.9471 97.1711ZM174.933 82.0194C174.056 82.2698 173.18 83.2716 172.303 85.0247C171.427 86.7778 170.675 88.7813 170.175 91.1605C169.674 93.4145 169.298 95.418 169.298 97.0458C169.298 98.0476 169.423 98.7989 169.799 99.2998C170.175 99.8007 170.675 100.051 171.176 99.8007C172.053 99.5503 172.929 98.5485 173.806 96.7954C174.683 95.0423 175.309 93.0388 175.935 90.6596C176.436 88.2804 176.811 86.4021 176.811 84.7742C176.811 83.7725 176.686 83.0212 176.31 82.5203C175.935 82.0194 175.434 81.8942 174.933 82.0194ZM151.266 90.6596C151.767 89.9083 152.143 89.0317 152.644 88.2804C153.771 86.2769 154.772 84.2734 155.649 82.3951C156.025 81.6437 156.4 80.7672 156.776 79.8906C157.026 79.1393 157.402 78.388 157.653 77.5115C158.153 76.0088 158.404 74.6314 158.404 73.7548C158.404 73.254 158.279 72.8783 158.153 72.6279C158.028 72.3774 157.653 72.3774 157.402 72.3774C156.901 72.5026 156.4 73.1287 155.774 74.3809C155.148 75.5079 154.522 77.3862 153.771 80.0159C152.894 82.5203 152.018 86.0265 151.266 90.6596ZM134.111 103.808C135.739 102.681 137.116 101.303 137.993 99.9259C138.869 98.4233 139.245 96.7954 139.245 95.0423C139.245 94.1658 139.12 93.5397 138.869 93.164C138.619 92.7884 138.243 92.6631 137.868 92.7884C137.367 92.9136 136.741 93.5397 136.24 94.4162C135.614 95.418 135.113 96.6702 134.737 98.298C134.362 99.8007 134.111 101.679 134.111 103.808ZM107.564 111.446C109.192 110.319 110.57 108.942 111.446 107.564C112.323 106.062 112.824 104.434 112.824 102.681C112.824 101.804 112.698 101.178 112.448 100.802C112.198 100.427 111.822 100.302 111.446 100.427C110.945 100.552 110.444 101.178 109.818 102.055C109.192 103.056 108.817 104.309 108.316 105.937C107.69 107.439 107.564 109.317 107.564 111.446ZM90.4092 116.455C90.0335 118.959 89.5326 121.464 89.157 123.968C89.5326 124.72 89.9083 125.22 90.2839 125.471C90.6596 125.721 91.0353 125.721 91.4109 125.596C92.2875 125.346 93.164 124.344 94.0406 122.841C94.7919 121.213 95.418 119.335 95.9189 117.206C96.1693 116.205 96.2945 115.203 96.4197 114.201C96.545 113.199 96.545 112.448 96.545 111.571C96.545 110.194 96.2945 109.067 95.9189 108.316C95.5432 107.564 94.9171 107.314 94.291 107.439C93.6649 107.69 92.9136 108.316 92.1622 109.568C91.7866 110.319 91.4109 111.071 91.1605 111.947C91.0353 112.949 90.7848 114.326 90.4092 116.455ZM70.8748 111.947C69.9982 112.198 69.1217 113.199 68.2451 114.952C67.3686 116.705 66.6173 118.709 66.1164 121.088C65.6155 123.342 65.2398 125.346 65.2398 126.974C65.2398 127.975 65.3651 128.727 65.7407 129.228C66.1164 129.728 66.6173 129.979 67.1182 129.728C67.9947 129.478 68.9965 128.476 69.7478 126.723C70.6243 124.97 71.2504 122.966 71.8765 120.587C72.3774 118.208 72.7531 116.33 72.7531 114.702C72.7531 113.7 72.6279 112.949 72.2522 112.448C71.8765 111.947 71.5009 111.697 70.8748 111.947Z" fill="white"/>
</g>
<defs>
<clipPath id="clip0_27_630">
<rect width="213" height="213" fill="white"/>
</clipPath>
</defs>
</svg>
